<?xml version="1.0" encoding="utf-8"?>
<!-- Generator: Adobe Illustrator 24.0.2, SVG Export Plug-In . SVG Version: 6.00 Build 0)  -->
<svg version="1.1" id="Layer_1" xmlns="http://www.w3.org/2000/svg" xmlns:xlink="http://www.w3.org/1999/xlink" x="0px" y="0px"
	 viewBox="0 0 1000 1000" style="enable-background:new 0 0 1000 1000;" xml:space="preserve">
<style type="text/css">
	.st0{fill:#662D91;}
	.st1{fill:#F26802;}
	.st2{fill:#03895E;}
	.st3{fill:#520074;}
</style>
<g>
	<path class="st0" d="M699.4,423.8c2.4,0,4.3,0,6.1,0c47.6,0,95.2,0,142.9,0c12.3,0,17,6.1,13.8,18c-5.8,21.1-11.6,42.2-17.4,63.2
		c-3.6,12.9-11.6,18.8-24.8,18.8c-58.6,0-117.3,0-175.9,0.1c-4.6,0-5.9-0.7-4.4-5.5c2.4-7.3,4.4-14.7,6.1-22c1-4.2,2.7-5.6,7.1-5.6
		c52.2,0.2,104.5,0,156.6,0.2c4.7,0,6.4-1.5,7.5-5.8c1.8-7.9,4-15.8,6.5-23.5c1.4-4.3,0.6-5.5-4-5.5c-47.1,0.1-94.2,0.1-141.3,0.1
		c-1.5,0-3.1,0-4.6,0c-9.3-0.4-14.6-6.7-12.2-15.7c6.2-23.1,12.5-46.1,19.3-69.1c2.9-10,11.9-16.2,22.4-16.2
		c59.7-0.1,119.3,0,179-0.1c4.1,0,4,1.5,3.1,4.5c-2.2,7.8-4.7,15.6-6.4,23.5c-0.9,4-2.6,5-6.5,4.9c-52.3-0.1-104.8,0-157.1-0.2
		c-4.3,0-6.2,1.1-7.3,5.4C705.3,403.4,702.3,413.4,699.4,423.8z"/>
	<path class="st0" d="M549.6,355.4c28.4,0,56.8,0,85.2,0c1.5,0,3.1,0,4.6,0c10.7,0.5,15.4,6.6,12.7,17c-4.5,17-9.3,34-14,51
		c-1.2,4.4-2.5,8.8-3.6,13.3c-3.7,13.8-11.6,19.8-25.7,19.8c-47.1,0-94.2,0.1-141.3-0.1c-4.9,0-6.5,1.5-7.8,6
		c-5,19-10.6,37.9-15.6,56.9c-0.9,3.3-2,4.7-5.8,4.6c-8.1-0.3-16.3-0.2-24.5,0c-3.2,0.1-4.6-0.5-3.6-4.2
		c8.7-30.8,17.3-61.8,25.8-92.7c1.1-4,3.5-3.3,6.1-3.3c51.8,0,103.7-0.1,155.5,0.1c5.2,0,7.7-1.1,8.9-6.5c1.6-8.1,4.2-16.1,6.6-24
		c1.3-4,0.2-4.7-3.7-4.7c-51.8,0.1-103.7,0.1-155.5,0.1c-7.1,0-7.1,0-5.1-6.8c2-7.4,4.3-14.7,6-22c0.9-3.6,2.4-4.4,5.9-4.4
		C490,355.5,519.8,355.4,549.6,355.4z"/>
	<path class="st0" d="M26.4,523.5c7.2-6.4,13.5-12.2,19.9-18c54.5-48.8,108.9-97.5,163.4-146.3c4.6-4.1,4.6-4.2,6.3,1.7
		c15.6,52.3,31.3,104.7,46.9,157c1.7,5.8,1.7,5.8-4.2,5.8c-7.5,0-15-0.2-22.5,0.1c-4.1,0.2-6-0.9-7.1-5c-1.9-8-4.7-15.9-7-24
		c-0.9-3.1-2-4.4-5.5-4.4c-33.8,0.1-67.6,0.1-101.6,0c-2.8,0-4.8,0.9-6.8,2.7c-10.5,9.4-21,18.8-31.5,28.3c-1.6,1.4-3.1,2.4-5.4,2.4
		c-14.1-0.1-28.3,0-42.4-0.1C28.7,523.8,28.1,523.7,26.4,523.5z M210.9,457.3c-4-13.3-7.9-26.2-11.6-39.2c-1.2-4.3-2.4-4.2-5.4-1.4
		c-13.9,12.6-28,25.1-42.1,37.7c-0.9,0.9-2.5,1.2-2.4,3C169.9,457.3,190.3,457.3,210.9,457.3z"/>
	<path class="st1" d="M913,485.9c-12.7,11.9-25.6,23.8-38.3,35.6c-0.3-0.1-0.5-0.3-0.9-0.4c15.2-54.9,30.4-109.7,46-165.8
		c6.8,13.3,13.1,25.4,19.3,37.5c6.8,13.8,13.5,27.7,20.7,41.4c2,3.9,1.5,6-1.6,8.9C943,457.3,928,471.7,913,485.9z"/>
	<path class="st2" d="M913,485.9c15-14.3,30-28.7,45.1-42.8c3.1-2.9,3.6-5,1.6-8.9c-7.2-13.7-13.8-27.6-20.7-41.4
		c3.3-12.1,6.6-24.1,10.3-37.2c1.1,1.8,1.8,2.9,2.4,4c12.7,25.3,25.4,50.6,38.2,75.9c1.2,2.2,1.8,3.9-0.5,6.1
		c-28,26.3-55.9,52.7-83.8,79.1c-0.3,0.3-0.9,0.5-2,1.4C906.8,509.5,909.9,497.7,913,485.9z"/>
	<path class="st0" d="M403.8,443.6c0,1.1,0,3.6,0,6.2c0,2.5-0.7,4.6-3.5,4.6c-3.2,0-3.7-2.4-3.6-4.9c0.4-10.3-0.2-20.3-3.2-30.3
		c-6-19.6-17.9-33.3-38.5-38c-2.1-0.5-4.4-0.7-6.5-1c-1.2-0.1-2.4,0.4-2.7,1.8c-0.3,1.3-0.1,2.4,1.1,3.2c1.4,1,2.9,1.6,4.6,1.9
		c29.2,6.7,40.1,27.6,39.5,55.3c-0.1,3.9-0.7,7.8-1.4,11.7c-0.5,3.5-1,7.2-4.5,9.3c2.1,3.2,1.4,6.5,0.4,10
		c-2,6.6-5.2,12.5-10.2,17.3c-1.9,1.8-3.9,3-6.2,0.9c-2-1.9-1.3-4,0.1-5.9c4.3-5.8,7.2-12.2,10.1-18.7c5.8-13.4,5.8-38.3-0.7-51.6
		c-6.5-13.4-18.5-19.2-32.3-21.1c-21-2.8-37.4,5.6-49.3,22.8c-1.5,2.1-2.9,5-5.9,3.1c-3.2-1.9-1.4-4.7,0.1-7.1
		c11.3-17.2,27.3-26.4,47.9-27.2c2.1-0.1,4.8,0.5,4.8-2.9c0-3.6-2.6-3.2-5-3.1c-15.2,1.1-29,6.5-42.1,14.1c-0.9,0.5-1.7,1.2-2.6,1.6
		c-1.9,1.1-4,1.5-5.4-0.6c-1.6-2.2-0.7-4.4,1.4-5.7c4.6-2.8,9.3-5.7,14.2-7.9c16.3-7.6,33.3-12.3,51.4-8.2
		c25.9,5.8,40.1,23.1,46.1,48.2C403.3,428.1,404,435.1,403.8,443.6z"/>
	<path class="st0" d="M341.9,460.6c-3.9,0-7.8,0-11.7,0c-5.9,0-6.6,0.9-7.2,8.8c-0.3,4.5,1.9,7.3,6.3,7.6c5.5,0.3,10.8,0.2,16.3,0.3
		c3.5,0,7.2,0.2,10.7-0.1c4.7-0.4,4.9,1.4,3.6,5.2c-2.2,6.5-4.9,8.8-11.8,8.8c-6.7,0-13.6,0.1-20.3-0.3
		c-13.4-0.9-21.1-10.6-18.5-23.5c2.2-11.5,3.2-23.2,8.8-33.8c7.4-14,26.5-20.4,41-13.7c6.7,3.1,10,9,10.6,16.2
		c0.6,6.4-1.1,12.5-3.3,18.4c-1.6,4.1-5.2,6.1-9.7,6.2C351.8,460.7,346.9,460.6,341.9,460.6z M341.2,447c2.7,0,5.5,0.1,8.1,0
		c2.2-0.2,5.1,1.4,5.8-2.8c0.7-4.4,1.6-8.7-2.8-11.5c-6.8-4.3-20.1,0-22.7,7.6c-2.7,7.7-2.4,6.7,4.4,6.7
		C336.4,447,338.8,447,341.2,447z"/>
	<path class="st0" d="M278.8,470c0-3.7,1-9.5,2.4-15.3c0.5-2.5,1.5-4.8,4.6-4.2c3.1,0.6,3,3.3,2.5,5.8c-1.7,7.7-2.9,15.4-1.5,23.2
		c3.4,19.2,17.9,32.9,37.8,36.2c13.8,2.2,26.6-0.1,38.4-7.8c0.4-0.3,0.9-0.5,1.3-0.9c2.1-1.4,4.6-3.2,6.6-0.2c2,2.9-0.4,4.6-2.6,6.1
		c-8.1,5.9-17.2,9.5-27.2,10.5c-23,2.1-42.2-4.8-55.2-24.8C280.7,490.5,279,481.6,278.8,470z"/>
	<path class="st0" d="M341.8,400.8c19.2,0.5,31,8.8,36.9,25.6c0.7,2,1.2,4.3,1.3,6.4c0.1,2.1-0.7,4.2-3.2,4.4
		c-2.5,0.3-3.5-1.3-4.1-3.5c-0.5-2.5-1.2-4.9-2.1-7.3c-9.8-24.5-42.8-20.5-54.3-7c-3.2,3.9-5.7,8-7.8,12.4c-1.1,2.4-2.7,4.4-5.5,2.9
		c-2.7-1.3-2.2-3.7-1.3-6.2C308.1,411.8,324.8,400.2,341.8,400.8z"/>
	<path class="st0" d="M334.2,355.5c20,0.1,37.9,6.4,54,17.6c2.5,1.7,5.9,3.3,3.2,7.1c-2.5,3.4-5.1,1-7.5-0.6
		c-16.4-11.1-34.2-17-54.2-15.9c-8.9,0.4-17.4,2.4-25.7,5.8c-2.7,1.1-5.5,2.2-7-1.3c-1.4-3.4,1.3-4.8,4-5.9
		C311.9,357.6,323,355.6,334.2,355.5z"/>
	<path class="st0" d="M292.9,469.6c0.9-9.5,3.2-19.6,5.7-29.8c0.6-2.6,2.4-3.7,4.9-3c2.6,0.7,3.2,2.8,2.7,5.2
		c-1.6,8.3-3.6,16.6-4.8,24.9c-2.6,17.3,8.3,31.6,25.7,34.4c3.3,0.5,8.3-0.2,7.4,5.1c-1,5.2-5.8,3.1-8.9,2.6
		C305,505.2,292.9,490.6,292.9,469.6z"/>
	<path class="st0" d="M934.5,581.8c-1.3-5.9-2.5-11.1-3.6-16.5c-5.8,4.2-4,13.9-13.5,16.2c5.5-10.7,10.3-20.3,15.6-30.9
		c1.5,7.5,2.7,13.9,4.2,21.5c5.4-7.3,10.1-13.7,14.9-20.1c0,7.7,0.2,15.3-0.1,22.9c-0.1,1.9,2,6-2.2,5.9c-4.5-0.1-1.6-3.9-1.9-5.9
		c-0.4-2.9-0.1-5.9-0.1-9.8C943,570.8,938.9,576.1,934.5,581.8z"/>
	<path class="st0" d="M636.3,565.1c-4.7,5.9-8.6,10.8-12.4,15.7c-0.1,0.1-0.3,0.1-0.7,0.2c-1.2-5.2-2.4-10.4-3.5-15.9
		c-5.6,4.4-4.1,13.9-13.5,16.4c5.5-10.8,10.3-20.3,15.6-30.9c1.5,7.4,2.8,13.8,4.3,21.4c5.4-7.3,10.2-13.8,15-20.2
		c0.3,0.1,0.6,0.2,0.9,0.3c-0.4,8.9-1,17.8-1.3,26.6c-0.1,2-1.2,2-2.7,2c-1.8,0-1.7-1.2-1.7-2.4
		C636.3,574.4,636.3,570.4,636.3,565.1z"/>
	<path class="st0" d="M476.1,580.9c-8,0.2-8,0.2-5.8-7.5c1.7-6.2,3.5-12.3,5.1-18.5c0.6-2.4,1.6-3.4,4.2-3.2c2.6,0.2,5,0.2,7.6,0.4
		c8.8,0.5,12.2,5.5,9.7,14C494.2,576.1,487.8,580.5,476.1,580.9z M484.3,556.3c-3.2-0.7-4.9,0.6-5.5,4.3c-0.4,2.8-1.7,5.5-2.2,8.2
		c-0.4,2.5-3.2,5.7-0.9,7.3c2.2,1.6,5.9,0.4,8.8-0.6c1.3-0.5,2.5-1.3,3.4-2.1c3.2-2.8,5.7-10.2,4.3-13.4
		C490.7,556.6,487.8,556.1,484.3,556.3z"/>
	<path class="st0" d="M81.1,580.5c2.5-9,4.9-17.8,7.3-26.5c0.3-1.2,0.7-2.4,2.2-2.4c4.9-0.1,9.8-0.4,14.6,1.2c3.6,1.3,5,4.3,5.2,7.9
		c0.4,9.3-7.1,18.5-16.4,19.6C89.9,581,85.7,580.5,81.1,580.5z M90.8,576.5c8-0.1,12.7-4.1,14.1-11.6c1-4.9-0.5-7.7-4.6-8.6
		c-5.9-1.3-7.5-0.3-9,5.1c-1.1,3.7-1.8,7.6-3.2,11.2C86.8,576.2,88,577,90.8,576.5z"/>
	<path class="st0" d="M709.4,581.8c-5.6-7.3-10.5-13.6-15.7-20.4c-1.6,5.8-3.1,11.1-4.6,16.5c-0.5,1.9-1.3,3.9-3.6,2.9
		c-2.5-0.9-0.9-2.7-0.4-4.1c2.2-8.3,4.5-16.6,7.2-26.1c5.4,7.1,10.3,13.4,15.7,20.5c1.7-5.8,3.3-10.9,4.7-16.3
		c0.5-2,1.2-3.7,3.6-3.1c2.9,0.7,0.9,2.9,0.5,4.2C714.5,564.3,712,572.5,709.4,581.8z"/>
	<path class="st0" d="M313.5,550.7c5.4,7.1,10.3,13.5,15.7,20.4c1.6-5.7,3-10.8,4.4-15.9c0.5-1.9,1.1-4.4,3.9-3.4
		c2.5,0.9,0.7,2.9,0.3,4.3c-2.2,8.2-4.6,16.5-7.2,25.8c-5.5-7.1-10.4-13.4-15.7-20.4c-1.7,6.1-3.4,11.3-4.7,16.8
		c-0.5,2-1.3,3.1-3.4,2.7c-2.8-0.5-1-2.6-0.7-3.5C308.3,568.7,310.8,560.1,313.5,550.7z"/>
	<path class="st0" d="M137.4,580.3c1-3.5,1.9-7.1,2.9-10.6c0.7-2.5,0-3.1-2.6-3.2c-10.6-0.4-10.6-0.5-13.5,9.7
		c-0.3,1.2-0.6,2.2-1,3.4c-0.6,1.8-2.2,1.2-3.4,1.1c-2.1-0.2-1.1-1.8-0.7-2.7c2.1-8,4.5-15.9,6.6-24c0.5-2.1,1.8-2.7,3.7-2.4
		c2.9,0.5,0.9,2.5,0.7,3.5c-0.3,2.4-1.2,4.6-1.8,7.2c2,0,3.7,0,5.5,0c8.2,0,8.2,0,10.7-7.8c0.6-2.1,1.6-3.5,3.9-2.9
		c2.8,0.7,1,2.7,0.6,4.1c-1.9,7.2-4.1,14.3-5.9,21.6C142.3,580.8,140.7,581.6,137.4,580.3z"/>
	<path class="st0" d="M379.2,580.7c2.5-9,4.9-17.8,7.3-26.5c0.4-1.7,1.4-2.6,3.2-2.5c1.8,0.1,3.7-0.1,5.6,0.1c2.7,0.2,5.6,0,6.8,3.2
		c1.3,3.2,0.2,6.1-2.1,8.3c-1.6,1.5-1.8,2.1-0.6,4.3c2.9,5-2,12.2-8.8,13.1C387,581,383.2,580.7,379.2,580.7z M384.6,576.4
		c7,0.4,10.3-1.3,10.6-4.9c0.2-2.6-1.4-3.5-3.6-3.9C384.3,566.7,387.4,573.3,384.6,576.4z M390.3,563.7c4.2,0,7-1.2,7.2-4.9
		c0.2-3.4-2.8-3.1-4.7-3c-4,0.3-2.8,4.2-3.7,6.5C388.2,564.3,390.1,563.7,390.3,563.7z"/>
	<path class="st0" d="M245.1,580.8c-9.5,0.7-6.7-8.9-11.5-11.9c-3.7,2.9,0.1,11.2-8.5,12.2c2.7-9.6,5.1-18.4,7.6-27.3
		c0.4-1.4,1.2-2.4,2.9-2.2c1.5,0.1,3.1-0.1,4.6,0.1c3.1,0.3,7,0.1,7.6,4.4c0.6,4.2-0.7,8.2-4.6,9.8c-4.3,1.7-3.6,3.6-1.8,6.6
		C242.7,575,243.7,577.7,245.1,580.8z M235.6,560.9c-0.4,1.7-0.6,3.1,1.5,3c2.9,0,4.9-1,5.5-4.1c0.4-2.4-0.6-3.3-3-3.6
		C235.3,555.5,236.7,559.4,235.6,560.9z"/>
	<path class="st0" d="M662.2,580.9c-8.1,0-8.1,0-5.9-8.1c1.6-5.9,3.3-11.8,4.8-17.7c0.6-2.6,1.8-3.6,4.6-3.4c3.2,0.2,6.4,0,9.6,0.1
		c1.1,0,2.7-0.5,2.6,1.4c-0.1,1.3-0.4,2.8-2.4,2.8c-2.2,0-4.4,0.1-6.6,0c-2.5-0.2-3.5,0.9-4.2,3.2c-0.9,3.1-0.1,4.1,2.9,3.7
		c1.2-0.1,2.5-0.2,3.5,0c1.3,0.3,3.5-1.2,3.5,1.4c0,2.4-1.6,3.1-3.9,2.8c-1.2-0.1-2.4,0-3.5,0c-4.3,0-7.3,3.6-6.6,7.8
		c0.4,2.5,2.4,1.1,3.5,1.6c2.1,1,6.4-2.2,6.4,1.8c0,4.5-4.5,1.7-7,2.5C663.3,581,662.8,580.9,662.2,580.9z"/>
	<path class="st0" d="M283,580.9c-8.1,0-8.1,0-6-7.6c1.7-6.2,3.5-12.4,5.1-18.6c0.5-2.2,1.6-3.1,3.9-3c3.4,0.1,6.7,0,10.2,0
		c1.1,0,2.7-0.5,2.6,1.5c0,1.5-0.5,2.7-2.4,2.8c-2.2,0-4.4,0.2-6.6,0c-2.6-0.3-3.6,1-4.2,3.3c-0.5,2.4-0.6,4.1,2.6,3.7
		c1.7-0.2,3.4,0,5.1,0c1.2,0,2.6-0.1,2.2,1.8c-0.2,1.3-0.7,2.4-2.1,2.4c-1.8,0.1-3.7,0.2-5.6,0c-2.9-0.2-4.6,0.4-5.5,3.6
		c-1.4,5.8-1.6,5.6,4.4,5.9c1.6,0.1,4.6-1.7,4.9,1.4c0.4,3.7-2.9,2.8-5,2.9C285.4,580.9,284.1,580.9,283,580.9z"/>
	<path class="st0" d="M437.6,580.4c2.5-8.9,4.8-17.7,7.3-26.4c0.4-1.7,1.4-2.5,3.3-2.4c3.5,0.1,7.2,0,10.7,0.1
		c1.1,0,2.7-0.4,2.5,1.5c-0.1,1.3-0.3,2.8-2.4,2.8c-2,0-4.1,0.2-6.1,0c-3-0.3-4.1,1.1-4.8,3.7c-0.7,2.7,0,3.4,2.5,3.2
		c1.7-0.1,3.4-0.1,5.1,0c1.1,0.1,2.7-0.5,2.5,1.5c-0.1,1.3-0.3,2.8-2.2,2.8c-2.4,0-4.7,0-7.2,0c-1.7,0-2.7,0.5-3.3,2.4
		c-2.5,6.5-2.2,7,4.7,7.2c1.5,0,4.2-1.5,4.3,1.5c0.1,2.8-2.1,2.9-4.3,2.8c-3.5-0.1-7.2,0-10.7-0.1
		C438.9,580.8,438.4,580.7,437.6,580.4z"/>
	<path class="st0" d="M890.6,580.9c2.6-9.3,5-18.1,7.4-26.9c0.4-1.7,1.4-2.5,3.2-2.4c3.5,0.1,7.2,0,10.7,0.1c1.1,0,2.8-0.5,2.5,1.4
		c-0.1,1.2-0.3,2.8-2.2,2.8c-2.2,0-4.4,0.1-6.6,0c-2.5-0.2-3.4,0.9-4.2,3.2c-1,3.1-0.2,4.1,2.8,3.7c1.4-0.1,2.7-0.1,4.1,0
		c1.2,0.1,3.1-0.7,3.1,1.4c0,1.9-1.1,3.1-3.3,2.9c-1.4-0.1-2.7,0-4.1,0c-4.3,0-7.3,3.4-6.7,7.7c0.1,1,0.4,1.6,1.5,1.6
		c1,0,2.1-0.1,3,0.1c1.9,0.5,5.6-1.7,5.7,1.6c0.2,4.3-3.9,2.5-6.2,2.7C897.8,581,894.4,580.9,890.6,580.9z"/>
	<path class="st0" d="M363.4,550.6c1.8,9.7,3.5,18.2,5,26.8c0.2,1.2,1.8,3.1-1,3.5c-1.8,0.2-3.5,0.4-3.9-2.5
		c-0.2-1.8,0.6-5.2-2.8-4.9c-3.7,0.3-8.1-2.1-11.2,2.4c-1.8,2.7-3.2,6.6-8.3,4.5C348.6,570.6,355.6,561,363.4,550.6z M354.7,569
		c8.5,0.9,8.5,0.9,5.7-7.9C358.5,563.6,356.8,566,354.7,569z"/>
	<path class="st0" d="M187.4,580.3c7.4-9.8,14.6-19.5,22.2-29.6c1.8,9.6,3.5,18.4,5.1,27.2c0.2,1.2,1.1,2.9-1.3,3
		c-1.6,0-3.3,0.5-3.7-2.1c-0.2-2,0.6-5.5-3-5.2c-3.9,0.2-8.6-2-11.5,3C193.7,579,192.1,582.3,187.4,580.3z M206.4,561
		c-1.9,2.8-3.7,5.4-5.6,8.1C209.1,569.7,209.2,569.6,206.4,561z"/>
	<path class="st0" d="M569.6,550.7c1.9,9.8,3.6,18.8,5.4,27.7c0.2,1.2,0.5,2.6-1.4,2.5c-1.4-0.1-3,0.7-3.6-1.6
		c-0.5-2.1,0.9-5.8-3.2-5.8c-4.3,0-9.3-1.8-12,3.9c-1.3,2.8-3.3,4.8-7.2,3.1C554.8,570.6,562,561,569.6,550.7z M560.8,569.1
		c8.5,0.4,8.6,0.2,5.8-8C564.6,563.7,562.9,566.1,560.8,569.1z"/>
	<path class="st0" d="M175.4,550.5c1.8,10.1,3.4,18.7,5,27.4c0.2,1.2,1.3,2.8-1.2,3c-1.8,0.1-3.2,0.1-3.7-2.2
		c-0.4-1.9,0.9-5.5-3.1-5.2c-4,0.2-8.6-1.8-11.5,3.1c-1.5,2.6-2.9,5.8-7.7,3.9C160.5,570.6,167.6,561.1,175.4,550.5z M166.4,569.1
		c7.8,0.4,7.8,0.4,6.1-8.5C170.5,563.4,168.8,566,166.4,569.1z"/>
	<path class="st0" d="M43.3,580.2c7.2-9.6,14.3-19.3,22-29.6c1.8,10,3.4,18.7,5.1,27.4c0.2,1.3,1,2.8-1.4,2.8
		c-1.4,0-2.8,0.4-3.5-1.8c-0.6-2,1-5.8-3.2-5.8c-4.3,0.1-9.3-1.6-12,4C49.2,580,47.2,581.9,43.3,580.2z M62.6,560.1
		c-1.8,3.7-4.6,5.8-5.5,9.2C64.2,569.5,64.2,569.5,62.6,560.1z"/>
	<path class="st3" d="M9.1,580.3c7.4-9.8,14.4-19.4,22.2-29.8c1.8,10,3.5,18.9,5.2,28c0.2,1.4,0,2.2-1.7,2.2c-1.6,0-2.9,0-3.3-2.1
		c-0.4-2,0.6-5.5-3-5.4c-4,0.2-8.6-2-11.5,3C15.3,579,13.7,582.3,9.1,580.3z M22.3,569.1c8.7,0.5,8.9,0.2,5.8-7.9
		C26.1,563.7,24.4,566.1,22.3,569.1z"/>
	<path class="st0" d="M788.9,551.2c0.4,0.1,1.8,0.3,3.1,0.7c1.7,0.5,3.5,1.9,2.7,3.6c-0.7,1.6-2.7,2.8-4.9,0.9
		c-2.4-2-4.8-1.2-6.5,1.3c-2.2,3.2,0.4,4.5,2.6,5.9c6.3,4.3,7.1,6,4.9,10.8c-2.4,5.2-8.5,8.2-13.8,6.8c-1.7-0.4-3.2-1.2-4-2.9
		c-0.6-1.3-1.7-2.8,0.4-3.9c1.5-0.7,2.6-1.2,3.7,0.6c2.1,3,5,2.4,7.5,0.4s2.7-4.3,0.1-6.4c-0.6-0.5-1.4-1-2.1-1.4
		c-3.4-1.9-6.5-4.1-5.4-8.7C778.4,554.6,783,551.3,788.9,551.2z"/>
	<path class="st0" d="M850.1,551.2c0.4,0.1,1.8,0.3,3,0.7c1.7,0.5,3.4,1.9,2.5,3.6c-0.7,1.4-2.6,2.7-4.6,1c-2.7-2.2-5.2-1.5-6.8,1.2
		c-1.9,3.1,0.6,4.5,2.8,5.9c6.2,4.1,7.2,6.4,4.6,11.3c-2.7,5.1-9.7,7.9-14.8,5.8c-1.5-0.6-2.7-1.6-3.2-3.1c-0.4-1.3-0.7-2.7,1.1-3.4
		c1.3-0.5,2-1,3.3,0.5c2.7,3,6.4,2.8,8.6-0.1c2.7-3.5,0-5.2-2.6-6.7c-3.5-2-6.8-4.1-5.6-9.1C839.5,554.4,844.1,551.2,850.1,551.2z"
		/>
	<path class="st0" d="M539.3,551.5c3.7,0.7,8.7-0.7,9.3,5.2c0.5,5-3.5,10.8-8.7,10.6c-6.5-0.3-7.9,3.2-8.8,8.2
		c-0.2,1.3-0.7,2.6-1.1,4c-0.5,1.8-2.1,1.4-3.3,1.3c-2.2-0.2-1-1.7-0.7-2.6c2.1-8,4.4-15.9,6.5-24
		C533.6,550,536.9,552.3,539.3,551.5z M538,563.6c3.2,0,5.2-1.3,5.5-4.6c0.2-3.1-2.5-2.9-4.3-2.9c-4.2-0.1-3,3.7-3.7,5.9
		C534.7,564.2,537,563.3,538,563.6z"/>
	<path class="st0" d="M608.2,552.5c-1.8,1.9-3.4,4.1-5.4,5.9c-5.7,5.4-10.2,11.3-11.1,19.3c-0.3,2.6-1.7,3.9-4.1,3
		c-2.6-0.9-0.7-3-0.3-4.1c3.4-7.4,1.2-14.1-1.5-21c-0.4-1.2-2.6-3.2,0.4-4c2.1-0.5,3.4,0.4,4.1,2.7c0.7,2.8,1.8,5.4,2.8,8.3
		C598.8,559.8,600.5,552.1,608.2,552.5z"/>
	<path class="st0" d="M729.2,580.2c1.8-6.6,3.6-13.4,5.6-19.9c1-3.1,0.9-4.9-3.1-4.5c-1.1,0.1-3,0.7-2.9-1.5c0.1-1.7,1-2.7,2.9-2.7
		c4.9,0.1,9.8,0,14.8,0.1c1.1,0,2.8-0.6,2.7,1.3c0,1.4-0.5,3.4-2.6,2.9c-5.7-1.3-6.6,2.5-7.6,6.6c-1.2,4.9-2.8,9.7-4,14.7
		C734.3,580.5,732.8,581.8,729.2,580.2z"/>
	<path class="st0" d="M877.6,551.7c2.4,0,4.7,0,7.2,0c1.1,0,2.6-0.4,2.6,1.5c0,1.5-0.7,3-2.4,2.7c-6.4-1.3-7,3.2-8,7.6
		c-1.1,4.6-2.6,9.1-3.7,13.7c-0.5,2.2-1.1,4.6-4.2,3.6c-3-1-0.7-3-0.4-4.5c1.4-5.5,2.8-10.8,4.5-16.2c1.1-3.2,0.6-4.7-3.1-4.3
		c-1.1,0.1-3,0.7-3-1.5c0-1.8,1.1-2.8,3-2.7C872.4,551.7,875,551.7,877.6,551.7z"/>
	<path class="st0" d="M830.1,552.5c-1.7,1.8-3.2,3.7-5,5.5c-5.7,5.6-10.6,11.5-11.5,19.7c-0.3,3.1-2.2,3.9-5.2,2.7
		c0-0.3,0-0.9,0.1-1.2c3.4-7.9,3.1-15.7-0.7-23.4c-0.5-1.2-2.6-3.2,0.4-4.1c2-0.5,3.4,0.1,4.1,2.6c0.7,3,1.9,5.8,2.9,8.7
		C820.4,559.9,822.1,552.2,830.1,552.5z"/>
	<path class="st0" d="M409.8,580.9c2.6-9.2,4.9-17.6,7.2-25.9c0.6-2.2,1.5-4.1,4.1-3.2s0.7,2.8,0.4,4.2c-1.4,5.5-2.8,10.8-4.5,16.2
		c-1,3.2-0.6,4.6,3.2,4.5c1.8,0,5.5-1.9,5.6,1.6c0.1,4-3.6,2.5-5.9,2.6C416.6,581,413.3,580.9,409.8,580.9z"/>
	<path class="st0" d="M347,508.2c-3.3,0-6.1-0.4-6.3-3.7c-0.2-3.5,2.5-4.5,5.6-4.3c3.7,0.2,7-1.1,10.3-2.5c2.5-1.1,4.8-0.9,5.9,1.9
		c1.1,2.7-0.6,4.1-2.8,5.1C355.4,506.8,350.9,507.8,347,508.2z"/>
	<path class="st0" d="M281.4,437c0.4-3.9,1.4-8.2,3.5-12.3c1.3-2.4,3-4,5.7-2.9c2.8,1.2,2.7,3.7,1.5,6c-1.7,3.3-2.8,6.8-3,10.6
		c-0.1,2.7-1.2,5.1-4.6,4.7C281.4,442.7,281.1,440.3,281.4,437z"/>
</g>
</svg>
